<svg width="512" height="512" viewBox="0 0 512 512" fill="none" xmlns="http://www.w3.org/2000/svg">
  <rect width="512" height="512" rx="120" fill="#6366F1"/>
  <path d="M160 240C182.091 240 200 222.091 200 200C200 177.909 182.091 160 160 160C137.909 160 120 177.909 120 200C120 222.091 137.909 240 160 240Z" fill="white"/>
  <path d="M352 240C374.091 240 392 222.091 392 200C392 177.909 374.091 160 352 160C329.909 160 312 177.909 312 200C312 222.091 329.909 240 352 240Z" fill="white"/>
  <path d="M256 192C278.091 192 296 174.091 296 152C296 129.909 278.091 112 256 112C233.909 112 216 129.909 216 152C216 174.091 233.909 192 256 192Z" fill="white"/>
  <path d="M256 424C322.274 424 376 370.274 376 304C376 270.863 362.58 240.863 340.92 219.08L256 304L171.08 219.08C149.42 240.863 136 270.863 136 304C136 370.274 189.726 424 256 424Z" fill="white"/>
  <path d="M256 360L280 336H310" stroke="#6366F1" stroke-width="20" stroke-linecap="round" stroke-linejoin="round"/>
  <path d="M256 360L232 384H202" stroke="#6366F1" stroke-width="20" stroke-linecap="round" stroke-linejoin="round"/>
</svg>
